<?xml version="1.0" encoding="UTF-8" standalone="no"?>
<svg
   xmlns:dc="http://purl.org/dc/elements/1.1/"
   xmlns:cc="http://creativecommons.org/ns#"
   xmlns:rdf="http://www.w3.org/1999/02/22-rdf-syntax-ns#"
   xmlns:svg="http://www.w3.org/2000/svg"
   xmlns="http://www.w3.org/2000/svg"
   xmlns:sodipodi="http://sodipodi.sourceforge.net/DTD/sodipodi-0.dtd"
   xmlns:inkscape="http://www.inkscape.org/namespaces/inkscape"
   enable-background="new 0 0 128 128"
   id="Social_Icons"
   version="1.1"
   viewBox="0 0 61.830509 58.576271"
   xml:space="preserve"
   sodipodi:docname="foursquare-icon.svg"
   width="61.830509"
   height="58.576271"
   inkscape:version="0.92.4 (5da689c313, 2019-01-14)"><metadata
     id="metadata12"><rdf:RDF><cc:Work
         rdf:about=""><dc:format>image/svg+xml</dc:format><dc:type
           rdf:resource="http://purl.org/dc/dcmitype/StillImage" /><dc:title></dc:title></cc:Work></rdf:RDF></metadata><defs
     id="defs10" /><sodipodi:namedview
     pagecolor="#ffffff"
     bordercolor="#666666"
     borderopacity="1"
     objecttolerance="10"
     gridtolerance="10"
     guidetolerance="10"
     inkscape:pageopacity="0"
     inkscape:pageshadow="2"
     inkscape:window-width="1366"
     inkscape:window-height="705"
     id="namedview8"
     showgrid="false"
     fit-margin-top="0"
     fit-margin-left="0"
     fit-margin-right="0"
     fit-margin-bottom="0"
     inkscape:zoom="1.84375"
     inkscape:cx="45.01695"
     inkscape:cy="-5.4237286"
     inkscape:window-x="-8"
     inkscape:window-y="-8"
     inkscape:window-maximized="1"
     inkscape:current-layer="Foursquare_1_" /><g
     id="_x35__stroke"
     transform="scale(0.48305085,0.45762712)"><g
       id="Foursquare_1_"><rect
         height="128"
         width="128"
         id="rect2"
         x="0"
         y="0"
         style="clip-rule:evenodd;fill:none;fill-rule:evenodd" /><path
         d="M 98.194,0 H 30.708 C 21.439,0 18.666,7.096 18.666,11.563 v 108.448 c 0,5.343 2.686,6.92 4.158,7.533 1.473,0.613 5.371,1.051 8.143,-1.752 0,0 32.054,-37.755 32.573,-38.368 0.52,-0.613 0.78,-0.613 1.126,-0.613 h 20.272 c 8.663,0 10.309,-6.044 11.262,-9.723 0.78,-3.066 9.703,-46.866 12.475,-60.706 C 110.755,5.694 108.07,0 98.194,0 m -3.985,18.484 -3.032,14.804 c -0.346,1.577 -1.819,2.978 -3.639,2.978 H 61.202 c -2.946,0 -5.371,2.453 -5.371,5.431 v 3.241 c 0,2.978 2.426,5.431 5.371,5.431 h 22.264 c 2.079,0 3.812,2.015 3.379,4.205 -0.433,2.278 -2.772,13.841 -3.032,15.067 -0.173,1.314 -1.559,2.978 -3.638,2.978 H 61.982 c -3.812,0.088 -4.591,0.175 -6.844,2.978 -2.252,2.803 -22.178,28.032 -22.178,28.032 -0.173,0.263 -0.346,0.175 -0.346,-0.088 v -85.76 c 0,-2.015 1.646,-3.679 3.638,-3.679 h 54.664 c 1.907,10e-4 3.813,1.929 3.293,4.382"
         id="Foursquare"
         inkscape:connector-curvature="0"
         style="clip-rule:evenodd;fill:#fa4778;fill-rule:evenodd" /><path
         style="opacity:1;fill:#ffffff;fill-opacity:1;fill-rule:nonzero;stroke:#000000;stroke-width:0;stroke-linejoin:round;stroke-miterlimit:4;stroke-dasharray:none;stroke-opacity:1;paint-order:markers fill stroke"
         d="m 15.837289,27.335593 c 0,-14.378908 0.168872,-19.5858222 0.650847,-20.0677967 0.471957,-0.471957 4.427135,-0.6508475 14.389904,-0.6508475 11.870081,0 13.782652,0.1136097 14.059536,0.8351584 0.395093,1.029594 -0.791894,7.3200698 -1.556662,8.2495878 -0.394979,0.480066 -2.651192,0.677966 -7.729365,0.677966 -8.014565,0 -8.966803,0.390054 -8.966803,3.672969 0,2.797102 1.460667,3.377878 8.495452,3.377878 3.346528,0 6.227045,0.230485 6.401147,0.512188 0.448853,0.726259 -1.351016,8.355307 -2.084484,8.835439 -0.334798,0.219161 -3.11042,0.402212 -6.168047,0.40678 -6.416515,0.0096 -5.275749,-0.709932 -12.280562,7.745746 -2.652615,3.202035 -4.910242,5.821881 -5.01695,5.821881 -0.106707,0 -0.194013,-8.737627 -0.194013,-19.416949 z"
         id="path815"
         inkscape:connector-curvature="0"
         transform="scale(2.0701754,2.1851852)" /></g></g></svg>