<?xml version="1.0" encoding="UTF-8" standalone="no"?>
<svg
   xmlns:dc="http://purl.org/dc/elements/1.1/"
   xmlns:cc="http://creativecommons.org/ns#"
   xmlns:rdf="http://www.w3.org/1999/02/22-rdf-syntax-ns#"
   xmlns:svg="http://www.w3.org/2000/svg"
   xmlns="http://www.w3.org/2000/svg"
   xmlns:sodipodi="http://sodipodi.sourceforge.net/DTD/sodipodi-0.dtd"
   xmlns:inkscape="http://www.inkscape.org/namespaces/inkscape"
   id="Layer_1"
   data-name="Layer 1"
   viewBox="0 0 711.31 45.31"
   version="1.1"
   sodipodi:docname="powered-by-foursquare-blue.svg"
   inkscape:version="0.92.4 (5da689c313, 2019-01-14)">
  <metadata
     id="metadata4875">
    <rdf:RDF>
      <cc:Work
         rdf:about="">
        <dc:format>image/svg+xml</dc:format>
        <dc:type
           rdf:resource="http://purl.org/dc/dcmitype/StillImage" />
        <dc:title>powered-by-foursquare</dc:title>
      </cc:Work>
    </rdf:RDF>
  </metadata>
  <sodipodi:namedview
     pagecolor="#ffffff"
     bordercolor="#666666"
     borderopacity="1"
     objecttolerance="10"
     gridtolerance="10"
     guidetolerance="10"
     inkscape:pageopacity="0"
     inkscape:pageshadow="2"
     inkscape:window-width="1366"
     inkscape:window-height="705"
     id="namedview4873"
     showgrid="false"
     inkscape:zoom="1.1292872"
     inkscape:cx="389.46559"
     inkscape:cy="22.655001"
     inkscape:window-x="-8"
     inkscape:window-y="-8"
     inkscape:window-maximized="1"
     inkscape:current-layer="Layer_1" />
  <defs
     id="defs4828">
    <style
       id="style4826">.cls-1{fill:#0732a2;}</style>
  </defs>
  <title
     id="title4830">powered-by-foursquare</title>
  <g
     id="Layer_2"
     data-name="Layer 2"
     transform="translate(0,3.5420572)">
    <g
       id="Layer_1-2"
       data-name="Layer 1-2">
      <path
         class="cls-1"
         d="m 2.24,39.34 v 0 A 2.24,2.24 0 0 1 0,37.1 v 0 -36.44 h 11.49 c 8.34,0 13,5.25 13,11.77 0,6.52 -4.64,11.93 -13,11.93 h -7 V 37.1 A 2.25,2.25 0 0 1 2.24,39.34 Z M 4.48,4.48 v 16.07 h 6.9 c 5,0 8.62,-3 8.62,-8.12 0,-5.12 -3.65,-7.95 -8.62,-7.95 z"
         id="path4832"
         inkscape:connector-curvature="0"
         style="fill:#0732a2" />
      <path
         class="cls-1"
         d="m 48.18,0 a 19.6,19.6 0 0 1 19.94,19.25 q 0,0.37 0,0.75 A 19.6,19.6 0 0 1 48.93,40 h -0.75 a 19.62,19.62 0 0 1 -20,-19.23 q 0,-0.38 0,-0.77 A 19.62,19.62 0 0 1 47.41,0 Z m 0,3.87 c -9.12,0 -15.47,7 -15.47,16.13 0,9.13 6.35,16.13 15.47,16.13 9.12,0 15.41,-7 15.41,-16.13 0,-9.13 -6.3,-16.13 -15.41,-16.13 z"
         id="path4834"
         inkscape:connector-curvature="0"
         style="fill:#0732a2" />
      <path
         class="cls-1"
         d="M 96,0.66 A 3.56,3.56 0 0 1 99.39,3.3 L 108,34.75 v 0 l 7.68,-32.42 a 2.16,2.16 0 0 1 2.1,-1.67 v 0 a 2.16,2.16 0 0 1 2.1,2.69 l -8.2,33.16 a 3.72,3.72 0 0 1 -3.61,2.83 v 0 A 3.71,3.71 0 0 1 104.49,36.6 L 95.91,5.36 87.48,36.61 a 3.69,3.69 0 0 1 -3.56,2.73 v 0 A 3.68,3.68 0 0 1 80.35,36.55 L 72,3.51 a 2.29,2.29 0 0 1 2.26,-2.85 v 0 a 2.29,2.29 0 0 1 2.23,1.77 L 84,34.75 v 0 L 92.49,3.31 A 3.59,3.59 0 0 1 96,0.66 Z"
         id="path4836"
         inkscape:connector-curvature="0"
         style="fill:#0732a2" />
      <path
         class="cls-1"
         d="m 151.55,4.53 h -20.06 v 13.2 h 12.27 a 1.88,1.88 0 0 1 1.88,1.88 v 0 a 1.88,1.88 0 0 1 -1.88,1.88 h -12.27 v 14 h 20.09 a 1.91,1.91 0 0 1 1.9,1.91 v 0 a 1.91,1.91 0 0 1 -1.9,1.91 H 127 V 0.66 h 24.53 a 1.93,1.93 0 0 1 1.93,1.93 v 0 a 1.93,1.93 0 0 1 -1.91,1.94 z"
         id="path4838"
         inkscape:connector-curvature="0"
         style="fill:#0732a2" />
      <path
         class="cls-1"
         d="m 171.66,22.43 h -7.13 V 37.1 a 2.24,2.24 0 0 1 -2.23,2.24 v 0 a 2.24,2.24 0 0 1 -2.24,-2.24 v 0 -36.44 h 11.88 c 8.17,0 12.93,4.2 12.93,10.72 0,3.76 -1.94,8.9 -8.9,10.5 l 8.82,14.21 A 2.13,2.13 0 0 1 183,39.34 v 0 a 2.15,2.15 0 0 1 -1.83,-1 z m 0.06,-18 h -7.19 v 14.19 h 7.19 c 5.13,0 8.67,-2.49 8.67,-7.07 0,-4.81 -3.54,-7.07 -8.67,-7.07 z"
         id="path4840"
         inkscape:connector-curvature="0"
         style="fill:#0732a2" />
      <path
         class="cls-1"
         d="m 217.19,4.53 h -20.06 v 13.2 h 12.27 a 1.89,1.89 0 0 1 1.88,1.88 v 0 a 1.88,1.88 0 0 1 -1.88,1.88 h -12.27 v 14 h 20.08 a 1.91,1.91 0 0 1 1.91,1.91 v 0 a 1.91,1.91 0 0 1 -1.91,1.91 H 192.66 V 0.66 h 24.53 a 1.94,1.94 0 0 1 1.93,1.94 v 0 a 1.94,1.94 0 0 1 -1.93,1.93 z"
         id="path4842"
         inkscape:connector-curvature="0"
         style="fill:#0732a2" />
      <path
         class="cls-1"
         d="m 236.69,39.34 h -11 V 0.66 h 11 c 12.71,0 19.83,7.85 19.83,19.34 0,11.49 -7.12,19.34 -19.83,19.34 z m -0.77,-35 h -5.75 v 31.3 h 5.75 c 10.05,0 16.13,-5.2 16.13,-15.64 C 252.05,9.56 246,4.36 235.92,4.36 Z"
         id="path4844"
         inkscape:connector-curvature="0"
         style="fill:#0732a2" />
      <path
         class="cls-1"
         d="m 290.28,18.67 v 0.11 a 10.19,10.19 0 0 1 8,10 c 0,6 -4.59,10.61 -12.49,10.61 H 274.7 V 0.66 h 10 c 7.57,0 11.3,4.75 11.3,9.51 a 8.71,8.71 0 0 1 -5.72,8.5 z M 279.18,4.42 v 12.71 h 4.75 c 4.75,0 7.68,-2.1 7.68,-6.41 0,-4.7 -3.59,-6.3 -7.3,-6.3 z m 0,31.22 h 5.41 c 5.91,0 9.17,-2.66 9.17,-7.35 0,-5.09 -4.14,-7.41 -9.11,-7.41 h -5.47 z"
         id="path4846"
         inkscape:connector-curvature="0"
         style="fill:#0732a2" />
      <path
         class="cls-1"
         d="m 302.66,0.66 v 0 a 2.19,2.19 0 0 1 1.81,1 l 11.34,16.72 v 0 L 327.29,1.57 A 2.07,2.07 0 0 1 329,0.66 v 0 a 2.08,2.08 0 0 1 1.7,3.27 L 318.07,22 v 15.1 a 2.24,2.24 0 0 1 -2.24,2.24 v 0 a 2.23,2.23 0 0 1 -2.23,-2.23 v 0 -14.9 L 300.87,4.1 a 2.19,2.19 0 0 1 1.79,-3.44 z"
         id="path4848"
         inkscape:connector-curvature="0"
         style="fill:#0732a2" />
      <path
         class="cls-1"
         d="m 453.44,0.6 h -8.73 a 1.35,1.35 0 0 0 -1.23,1.23 v 22.06 c 0,3.61 -1.29,5.53 -4.61,5.53 -3.32,0 -4.61,-1.78 -4.61,-5.39 V 1.8 A 1.4,1.4 0 0 0 433,0.6 h -8.7 a 1,1 0 0 0 -1.09,1.06 v 24.42 c 0,7.55 5.46,13.62 15.55,13.62 10.09,0 15.77,-6.07 15.77,-13.62 V 1.66 A 1.09,1.09 0 0 0 453.44,0.6"
         id="path4850"
         inkscape:connector-curvature="0"
         style="fill:#0732a2" />
      <path
         class="cls-1"
         d="M 516.28,16.17 510,14 c -1.85,-0.65 -2.07,-1.69 -2.07,-2.3 0,-1 0.92,-2 2.78,-2 a 12.69,12.69 0 0 1 7.75,2.75 0.89,0.89 0 0 0 1.25,-0.11 v 0 l 4.87,-6.17 A 1,1 0 0 0 524.47,4.84 21.21,21.21 0 0 0 510.55,0.08 c -9,0 -14.45,5.64 -14.45,11.77 0,4.81 2.78,9.25 8.73,11.27 l 5.56,1.88 c 2.73,0.93 3.17,1.64 3.17,2.79 0,1.15 -1.09,2.21 -3.28,2.21 -3.08,0 -6.7,-1.86 -9.13,-3.88 a 0.84,0.84 0 0 0 -1.19,0.06 l -0.05,0.06 -5,6.59 a 1,1 0 0 0 0.09,1.37 23.67,23.67 0 0 0 15.74,5.47 c 8.52,0 14.68,-4.93 14.68,-12.37 0,-5.09 -3.16,-9.09 -9.17,-11.17"
         id="path4852"
         inkscape:connector-curvature="0"
         style="fill:#0732a2" />
      <path
         class="cls-1"
         d="m 376.31,0.6 h -25.68 a 1.37,1.37 0 0 0 -1.22,1.23 v 36.39 a 1.15,1.15 0 0 0 1.08,1.12 h 9 a 1.11,1.11 0 0 0 1,-1.12 V 25.88 h 11.25 a 1.19,1.19 0 0 0 1.18,-1 L 374.51,17 a 0.78,0.78 0 0 0 -0.79,-1 h -13.25 v -5.59 h 14.4 a 1.27,1.27 0 0 0 1.19,-1 l 1.51,-7.55 A 1.18,1.18 0 0 0 376.48,0.6 h -0.17"
         id="path4854"
         inkscape:connector-curvature="0"
         style="fill:#0732a2" />
      <path
         class="cls-1"
         d="m 708.51,10.46 a 1.25,1.25 0 0 0 1.18,-1 L 711.28,2 A 1,1 0 0 0 710.34,0.71 L 684.53,0.6 c -0.62,0 -1.23,1.3 -1.23,1.85 v 35.77 a 1.44,1.44 0 0 0 1.26,1.23 h 23.59 a 1.25,1.25 0 0 0 1.18,-1 l 1.59,-7.55 a 1.06,1.06 0 0 0 -1.18,-1.29 h -15.38 v -5 h 11.24 a 1.26,1.26 0 0 0 1.18,-1 l 1.68,-7.79 a 0.76,0.76 0 0 0 -0.79,-1 h -13.31 v -4.36 z"
         id="path4856"
         inkscape:connector-curvature="0"
         style="fill:#0732a2" />
      <path
         class="cls-1"
         d="M 631.11,1.48 A 1.48,1.48 0 0 0 629.81,0.6 H 618.1 a 1.43,1.43 0 0 0 -1.26,0.88 l -11,37 a 0.67,0.67 0 0 0 0.64,0.93 h 9.8 a 1.34,1.34 0 0 0 1.16,-0.94 l 1.56,-5.8 h 9.84 l 1.69,5.85 a 1.35,1.35 0 0 0 1.17,0.93 h 9.74 a 0.68,0.68 0 0 0 0.65,-0.93 z m -10.72,20.7 3.53,-11.55 3.55,11.55 z"
         id="path4858"
         inkscape:connector-curvature="0"
         style="fill:#0732a2" />
      <path
         class="cls-1"
         d="m 671.25,24.66 c 4.63,-2.3 7,-5.9 7,-11.26 0,-6.78 -5.44,-12.8 -14.65,-12.8 H 647 a 1.32,1.32 0 0 0 -1.23,1.11 v 36.51 a 1.36,1.36 0 0 0 1.14,1.23 h 8.73 a 1.41,1.41 0 0 0 1.2,-1.23 V 26.5 h 3.68 l 6.54,12.08 a 1.8,1.8 0 0 0 1.45,0.87 h 10.28 c 0.55,0 0.77,-0.38 0.5,-0.85 z m -8.61,-7.41 h -5.78 v -6.78 h 5.53 c 3.16,0 4.66,1.53 4.66,3.45 0,1.92 -1.25,3.33 -4.41,3.33 z"
         id="path4860"
         inkscape:connector-curvature="0"
         style="fill:#0732a2" />
      <path
         class="cls-1"
         d="m 568,34.22 a 10.75,10.75 0 0 1 -6.16,0.46 v 0 c 0.38,-0.34 0.76,-0.69 1.12,-1.06 A 20.44,20.44 0 0 0 567.05,12.93 20,20 0 0 0 549.83,0.14 c -7.76,-0.63 -15.62,3.19 -19.37,10 a 20.39,20.39 0 0 0 2.15,22.7 20.79,20.79 0 0 0 18.63,6.67 l 0.3,0.29 c 3.76,3.55 9.86,5.53 15.07,5.53 l 2.15,-10.49 a 0.52,0.52 0 0 0 -0.71,-0.6 M 548.14,29.6 c -5,0 -8.38,-4.35 -8.38,-9.71 0,-5.36 3.39,-9.71 8.38,-9.71 4.99,0 8.38,4.34 8.38,9.71 0,5.37 -3.39,9.71 -8.38,9.71"
         id="path4862"
         inkscape:connector-curvature="0"
         style="fill:#0732a2" />
      <path
         class="cls-1"
         d="m 400.46,0.14 c -7.76,-0.63 -15.62,3.19 -19.37,10 a 20.39,20.39 0 0 0 2.15,22.7 c 7.6,8.86 22.33,9.22 30.39,0.8 A 20.44,20.44 0 0 0 417.72,12.95 20,20 0 0 0 400.46,0.14 m -1.69,29.46 c -5,0 -8.38,-4.35 -8.38,-9.71 0,-5.36 3.4,-9.71 8.38,-9.71 4.98,0 8.38,4.34 8.38,9.71 0,5.37 -3.39,9.71 -8.38,9.71"
         id="path4864"
         inkscape:connector-curvature="0"
         style="fill:#0732a2" />
      <path
         class="cls-1"
         d="m 602.84,0.6 h -8.72 a 1.32,1.32 0 0 0 -1.21,1.23 V 24 c 0,3.61 -1.32,5.39 -4.64,5.39 -3.32,0 -4.61,-1.78 -4.61,-5.39 V 1.8 a 1.42,1.42 0 0 0 -1.23,-1.2 h -8.55 a 1.71,1.71 0 0 0 -1.27,1.23 v 24.25 c 0,7.55 5.46,13.62 15.55,13.62 10.09,0 15.77,-6.07 15.77,-13.62 V 1.83 A 1.24,1.24 0 0 0 602.84,0.6"
         id="path4866"
         inkscape:connector-curvature="0"
         style="fill:#0732a2" />
      <path
         class="cls-1"
         d="m 484.93,24.66 c 4.63,-2.3 7,-5.9 7,-11.26 C 492,6.62 486.51,0.6 477.31,0.6 H 460.7 a 1.45,1.45 0 0 0 -1.23,1.23 v 36.39 a 1.36,1.36 0 0 0 1.15,1.23 h 8.73 a 1.41,1.41 0 0 0 1.19,-1.23 V 26.5 h 3.69 l 6.53,12.08 a 1.82,1.82 0 0 0 1.46,0.87 h 10.28 c 0.55,0 0.77,-0.38 0.49,-0.85 z m -8.6,-7.41 h -5.79 v -6.78 h 5.53 c 3.16,0 4.66,1.53 4.66,3.45 0,1.92 -1.25,3.33 -4.4,3.33 z"
         id="path4868"
         inkscape:connector-curvature="0"
         style="fill:#0732a2" />
    </g>
  </g>
</svg>
